<?xml version="1.0" encoding="UTF-8" standalone="no"?>
<svg
   xmlns:dc="http://purl.org/dc/elements/1.1/"
   xmlns:cc="http://creativecommons.org/ns#"
   xmlns:rdf="http://www.w3.org/1999/02/22-rdf-syntax-ns#"
   xmlns:svg="http://www.w3.org/2000/svg"
   xmlns="http://www.w3.org/2000/svg"
   xmlns:sodipodi="http://sodipodi.sourceforge.net/DTD/sodipodi-0.dtd"
   xmlns:inkscape="http://www.inkscape.org/namespaces/inkscape"
   width="500"
   height="500"
   viewBox="0 0 132.29167 132.29167"
   version="1.1"
   id="svg1549"
   inkscape:version="1.0.2 (e86c870879, 2021-01-15, custom)"
   sodipodi:docname="PerfTriforce.svg"
   inkscape:export-filename="C:\Users\LeanderMan\Documents\repositories\k6-workshop\images\PerfTriforce.png"
   inkscape:export-xdpi="96"
   inkscape:export-ydpi="96">
  <defs
     id="defs1543" />
  <sodipodi:namedview
     id="base"
     pagecolor="#ffffff"
     bordercolor="#666666"
     borderopacity="1.0"
     inkscape:pageopacity="0.0"
     inkscape:pageshadow="2"
     inkscape:zoom="0.49497475"
     inkscape:cx="560.01226"
     inkscape:cy="237.78442"
     inkscape:document-units="mm"
     inkscape:current-layer="layer1"
     inkscape:document-rotation="0"
     showgrid="false"
     inkscape:window-width="1624"
     inkscape:window-height="1228"
     inkscape:window-x="320"
     inkscape:window-y="79"
     inkscape:window-maximized="0"
     units="px" />
  <metadata
     id="metadata1546">
    <rdf:RDF>
      <cc:Work
         rdf:about="">
        <dc:format>image/svg+xml</dc:format>
        <dc:type
           rdf:resource="http://purl.org/dc/dcmitype/StillImage" />
        <dc:title></dc:title>
      </cc:Work>
    </rdf:RDF>
  </metadata>
  <g
     inkscape:label="Layer 1"
     inkscape:groupmode="layer"
     id="layer1">
    <path
       sodipodi:type="star"
       style="opacity:1;fill:#7d64ff;fill-opacity:1;stroke:none;stroke-width:0.264999;stroke-opacity:1"
       id="path2114"
       sodipodi:sides="3"
       sodipodi:cx="117.92857"
       sodipodi:cy="145.14285"
       sodipodi:r1="84.070602"
       sodipodi:r2="42.035305"
       sodipodi:arg1="0.91290772"
       sodipodi:arg2="1.9601053"
       inkscape:flatsided="false"
       inkscape:rounded="0"
       inkscape:randomized="0"
       d="M 169.33333,211.66666 101.97411,184.03272 34.614887,156.39878 92.226192,111.88095 149.8375,67.363122 l 9.74792,72.151768 z"
       inkscape:transform-center-x="-5.3416552"
       inkscape:transform-center-y="-11.275084"
       transform="matrix(0.36830272,-0.15110077,0.15110077,0.36830272,-28.667489,66.831354)" />
    <path
       sodipodi:type="star"
       style="fill:#7d64ff;fill-opacity:1;stroke:none;stroke-width:0.264999;stroke-opacity:1"
       id="path2114-6"
       sodipodi:sides="3"
       sodipodi:cx="117.92857"
       sodipodi:cy="145.14285"
       sodipodi:r1="84.070602"
       sodipodi:r2="42.035305"
       sodipodi:arg1="0.91290772"
       sodipodi:arg2="1.9601053"
       inkscape:flatsided="false"
       inkscape:rounded="0"
       inkscape:randomized="0"
       inkscape:transform-center-x="-5.3416552"
       inkscape:transform-center-y="-11.275084"
       transform="matrix(0.36830272,-0.15110077,0.15110077,0.36830272,29.300701,66.830604)"
       d="M 169.33333,211.66666 101.97411,184.03272 34.614887,156.39878 92.226192,111.88095 149.8375,67.363122 l 9.74792,72.151768 z" />
    <path
       sodipodi:type="star"
       style="fill:#7d64ff;fill-opacity:1;stroke:none;stroke-width:0.264999;stroke-opacity:1"
       id="path2114-7"
       sodipodi:sides="3"
       sodipodi:cx="117.92857"
       sodipodi:cy="145.14285"
       sodipodi:r1="84.070602"
       sodipodi:r2="42.035305"
       sodipodi:arg1="0.91290772"
       sodipodi:arg2="1.9601053"
       inkscape:flatsided="false"
       inkscape:rounded="0"
       inkscape:randomized="0"
       inkscape:transform-center-x="-5.3416552"
       inkscape:transform-center-y="-11.275084"
       transform="matrix(0.36830272,-0.15110077,0.15110077,0.36830272,0.31595681,16.629054)"
       d="M 169.33333,211.66666 101.97411,184.03272 34.614887,156.39878 92.226192,111.88095 149.8375,67.363122 l 9.74792,72.151768 z" />
    <text
       xml:space="preserve"
       style="font-style:normal;font-weight:normal;font-size:10.5833px;line-height:1.25;font-family:sans-serif;fill:#000000;fill-opacity:1;stroke:none;stroke-width:0.264583"
       x="19.894121"
       y="112.72698"
       id="text2167"><tspan
         sodipodi:role="line"
         id="tspan2165"
         x="19.894121"
         y="112.72698"
         style="font-style:italic;font-variant:normal;font-weight:bold;font-stretch:normal;font-family:'TT Norms Pro';-inkscape-font-specification:'TT Norms Pro Bold Italic';fill:#ffffff;stroke-width:0.264583">Speed</tspan></text>
    <text
       xml:space="preserve"
       style="font-style:normal;font-weight:normal;font-size:10.5833px;line-height:1.25;font-family:sans-serif;fill:#000000;fill-opacity:1;stroke:none;stroke-width:0.264583"
       x="77.426079"
       y="112.3272"
       id="text2167-6"><tspan
         sodipodi:role="line"
         id="tspan2165-3"
         x="77.426079"
         y="112.3272"
         style="font-style:italic;font-variant:normal;font-weight:bold;font-stretch:normal;font-family:'TT Norms Pro';-inkscape-font-specification:'TT Norms Pro Bold Italic';fill:#ffffff;stroke-width:0.264583">Impact</tspan></text>
    <text
       xml:space="preserve"
       style="font-style:normal;font-weight:normal;font-size:10.5833px;line-height:1.25;font-family:sans-serif;fill:#000000;fill-opacity:1;stroke:none;stroke-width:0.264583"
       x="43.39513"
       y="64.335411"
       id="text2167-6-6"><tspan
         sodipodi:role="line"
         id="tspan2165-3-5"
         x="43.39513"
         y="64.335411"
         style="font-style:italic;font-variant:normal;font-weight:bold;font-stretch:normal;font-family:'TT Norms Pro';-inkscape-font-specification:'TT Norms Pro Bold Italic';fill:#ffffff;stroke-width:0.264583">Scenario</tspan></text>
    <path
       d="m 38.524486,95.770374 1.554648,-2.37444 -0.267757,-0.23944 -2.166263,1.82771 c -0.398091,-0.0814 -0.826855,0.0401 -1.117036,0.3645 -0.434069,0.48538 -0.392184,1.23145 0.09384,1.66552 0.485984,0.43407 1.231455,0.39221 1.665546,-0.0938 0.290159,-0.32438 0.362693,-0.76375 0.237084,-1.15008 z m -2.306027,-6.27876 v -1.58886 h 2.359101 v 1.58886 c -0.848677,-0.14333 -1.528702,-0.14043 -2.359101,0 z m 5.220102,1.2173 0.829819,-0.82982 0.833943,0.83395 -0.779086,0.77911 c -0.272482,-0.28546 -0.568548,-0.54673 -0.884676,-0.78324 z m -11.117889,2.50183 h 4.718225 v 1.17956 h -4.718225 z m -1.179539,2.35913 h 4.718202 v 1.17954 h -4.718202 z m 1.769331,2.3591 h 4.128433 v 1.17956 h -4.128433 z m 12.385321,-1.76933 c 0,3.25733 -2.640434,5.897756 -5.897787,5.897756 -1.645461,0 -3.125815,-0.68118 -4.1939,-1.76933 h 1.934483 c 0.671154,0.37214 1.438447,0.58979 2.259417,0.58979 2.601514,0 4.718225,-2.116706 4.718225,-4.718216 0,-2.60152 -2.116711,-4.71823 -4.718225,-4.71823 -0.82097,0 -1.588263,0.21756 -2.259417,0.58979 h -1.934483 c 1.068085,-1.08814 2.548439,-1.76933 4.1939,-1.76933 3.257353,0 5.897787,2.64044 5.897787,5.89777 z"
       id="path2235"
       style="fill:#ffffff;stroke-width:0.589776" />
    <path
       d="m 69.781,44.908974 v -1.78349 c -0.91121,-0.32476 -1.4852,-0.4151 -1.77569,-1.11448 -0.29053,-0.70092 0.0545,-1.17757 0.46728,-2.04438 l -1.2601,-1.2609 c -0.8606,0.40889 -1.3419,0.75855 -2.04517,0.46729 -0.70092,-0.29053 -0.79205,-0.86917 -1.114483,-1.77569 h -1.783462 c -0.320876,0.90187 -0.412773,1.48519 -1.114484,1.77569 h -7.95e-4 c -0.700915,0.29141 -1.176003,-0.0544 -2.044377,-0.46729 l -1.259335,1.2609 c 0.410447,0.86449 0.757785,1.34267 0.467287,2.04438 -0.291999,0.70171 -0.874614,0.7936 -1.776456,1.11448 v 1.7827 c 0.899517,0.32087 1.485193,0.41356 1.775691,1.11448 0.292882,0.70716 -0.06299,1.19469 -0.467287,2.04438 l 1.2601,1.26089 c 0.862163,-0.40886 1.342667,-0.75855 2.044377,-0.46729 h 7.95e-4 c 0.700916,0.29053 0.792814,0.87073 1.114484,1.7757 h 1.782696 c 0.320879,-0.90188 0.412769,-1.48364 1.119139,-1.77726 h 7.9e-4 c 0.69627,-0.28964 1.169,0.0553 2.0397,0.46885 l 1.26013,-1.26089 c -0.40889,-0.86214 -0.75858,-1.3419 -0.46808,-2.04438 0.29141,-0.70015 0.87693,-0.79361 1.77725,-1.11369 z m -6.619909,1.31541 c -1.218037,0 -2.206361,-0.98832 -2.206361,-2.20715 0,-1.21884 0.988324,-2.20716 2.206361,-2.20716 1.218069,0 2.206389,0.98832 2.206389,2.20716 0,1.21883 -0.98832,2.20715 -2.206389,2.20715 z m 12.071609,3.2749 v -0.8388 c -0.42835,-0.15277 -0.69859,-0.19545 -0.83567,-0.52412 -0.13717,-0.33021 0.0265,-0.55374 0.21959,-0.96263 l -0.59345,-0.59345 c -0.40497,0.1931 -0.63163,0.3567 -0.96183,0.22048 -0.33024,-0.13629 -0.37307,-0.40889 -0.52492,-0.83568 h -0.838 c -0.15101,0.42446 -0.19486,0.69859 -0.52492,0.83568 -0.33024,0.13716 -0.55374,-0.0265 -0.96183,-0.22048 l -0.59345,0.59345 c 0.19309,0.40733 0.35667,0.63242 0.21959,0.96263 -0.13717,0.3302 -0.41122,0.37303 -0.83567,0.52412 v 0.8388 c 0.42366,0.15041 0.69859,0.19456 0.83567,0.52412 0.13775,0.33256 -0.0297,0.56231 -0.21959,0.96263 l 0.59345,0.59345 c 0.40576,-0.1931 0.63239,-0.3567 0.96183,-0.22048 0.3302,0.13629 0.37303,0.40966 0.52492,0.83565 h 0.838 c 0.151,-0.42443 0.19456,-0.69859 0.52648,-0.83644 h 7.6e-4 c 0.32788,-0.13629 0.54986,0.0265 0.95951,0.22106 l 0.59345,-0.59345 c -0.19222,-0.40576 -0.3567,-0.63239 -0.21959,-0.96183 0.13717,-0.32944 0.41198,-0.37462 0.83567,-0.52492 z m -3.11527,0.61837 c -0.57319,0 -1.03816,-0.46496 -1.03816,-1.03815 0,-0.5732 0.46497,-1.03816 1.03816,-1.03816 0.57323,0 1.03816,0.46496 1.03816,1.03816 0,0.57319 -0.46493,1.03815 -1.03816,1.03815 z m -3.11524,2.39172 v -0.62927 c -0.32087,-0.1145 -0.52412,-0.14629 -0.62694,-0.39329 -0.10273,-0.24696 0.0177,-0.41512 0.16513,-0.72196 l -0.44547,-0.44471 c -0.30295,0.14482 -0.47274,0.26786 -0.72117,0.16513 -0.24844,-0.10273 -0.27964,-0.30683 -0.39408,-0.62694 h -0.62851 c -0.11362,0.31855 -0.14629,0.52415 -0.39408,0.62694 -0.24696,0.10273 -0.4151,-0.0177 -0.7212,-0.16513 l -0.44547,0.44471 c 0.1457,0.30607 0.26786,0.47429 0.16513,0.72196 -0.10273,0.24755 -0.30842,0.27964 -0.626943,0.39329 v 0.62927 c 0.317753,0.11303 0.524123,0.14629 0.626943,0.39332 0.10361,0.24931 -0.0206,0.4221 -0.16513,0.72196 l 0.44547,0.44471 c 0.30375,-0.14482 0.47353,-0.26786 0.7212,-0.16513 0.24755,0.10272 0.27964,0.30762 0.39408,0.62694 h 0.62851 c 0.11362,-0.31852 0.14629,-0.52413 0.39484,-0.62694 h 8e-4 c 0.2452,-0.10215 0.41198,0.0206 0.71961,0.16601 l 0.44547,-0.44471 c -0.14482,-0.30451 -0.26786,-0.47429 -0.16513,-0.72196 0.10273,-0.24755 0.30919,-0.28111 0.62694,-0.39408 z m -2.33643,0.4642 c -0.42991,0 -0.7788,-0.34814 -0.7788,-0.77884 0,-0.43066 0.34889,-0.7788 0.7788,-0.7788 0.4299,0 0.7788,0.34814 0.7788,0.7788 0,0.4307 -0.3489,0.77884 -0.7788,0.77884 z"
       id="path2246"
       style="fill:#ffffff;stroke-width:0.778811" />
    <path
       d="m 90.76333,99.927604 h -2.91834 v -5.83671 h 2.91834 z m 4.37752,0 h -2.91834 v -13.13257 h 2.91834 z m 4.37752,0 h -2.91834 v -8.75505 h 2.91834 z m 4.37753,0 h -2.91834 v -2.91834 h 2.91834 z m 0.72957,1.459176 H 87.11538 v 1.45916 h 17.51009 z"
       id="path2257"
       style="fill:#ffffff;stroke-width:0.729586" />
    <text
       xml:space="preserve"
       style="font-style:normal;font-weight:normal;font-size:8.46667px;line-height:0.85;font-family:sans-serif;fill:#7d64ff;fill-opacity:1;stroke:none;stroke-width:0.264583"
       x="65.947212"
       y="78.422783"
       id="text2270"><tspan
         sodipodi:role="line"
         x="65.947212"
         y="78.422783"
         style="font-style:italic;font-variant:normal;font-weight:800;font-stretch:normal;font-size:8.46667px;font-family:'TT Norms Pro';-inkscape-font-specification:'TT Norms Pro Ultra-Bold Italic';text-align:center;text-anchor:middle;fill:#7d64ff;fill-opacity:1;stroke-width:0.264583"
         id="tspan2272">Triforce</tspan><tspan
         sodipodi:role="line"
         x="65.947212"
         y="86.358849"
         style="font-style:italic;font-variant:normal;font-weight:800;font-stretch:normal;font-size:8.46667px;font-family:'TT Norms Pro';-inkscape-font-specification:'TT Norms Pro Ultra-Bold Italic';text-align:center;text-anchor:middle;fill:#7d64ff;fill-opacity:1;stroke-width:0.264583"
         id="tspan2276">of</tspan><tspan
         sodipodi:role="line"
         x="65.947212"
         y="94.294914"
         style="font-style:italic;font-variant:normal;font-weight:800;font-stretch:normal;font-size:8.46667px;font-family:'TT Norms Pro';-inkscape-font-specification:'TT Norms Pro Ultra-Bold Italic';text-align:center;text-anchor:middle;fill:#7d64ff;fill-opacity:1;stroke-width:0.264583"
         id="tspan2278">Perf</tspan></text>
  </g>
</svg>
